<?xml version="1.0" encoding="UTF-8" standalone="no"?>
<!DOCTYPE svg PUBLIC "-//W3C//DTD SVG 1.1//EN" "http://www.w3.org/Graphics/SVG/1.1/DTD/svg11.dtd">
<svg width="100%" height="100%" viewBox="340 280 1000 1220" version="1.1" xmlns="http://www.w3.org/2000/svg" xmlns:xlink="http://www.w3.org/1999/xlink" xml:space="preserve" xmlns:serif="http://www.serif.com/" style="fill-rule:evenodd;clip-rule:evenodd;stroke-linejoin:round;stroke-miterlimit:2;">
    <g transform="matrix(0.745956,0,0,0.716157,189.1273,222.616598)">
        <g transform="matrix(1.083191,0,0,1.107845,-79.20763,52.132602)">
            <g>
                <g transform="matrix(1.333333,0,0,1.333333,0,0.000045)">
                    <path d="M1191.086,1058.664L1035.262,1058.664C1030.145,1044.32 1020.953,1031.914 1007.914,1023.453C972.273,1000.352 921.52,1015.332 894.547,1056.922C894.172,1057.492 893.82,1058.078 893.453,1058.664L613.785,1058.664C613.434,1058.078 613.086,1057.492 612.707,1056.922C585.734,1015.332 534.984,1000.352 499.344,1023.453C486.301,1031.914 477.109,1044.32 471.992,1058.664L291.777,1058.664C284.211,1058.664 278.094,1064.797 278.094,1072.348C278.094,1079.91 284.211,1086.027 291.777,1086.027L467.27,1086.027C467.125,1104.172 472.449,1123.332 483.656,1140.605C510.629,1182.207 561.383,1197.18 597.02,1174.074C639.637,1154.391 648.934,1108.91 650.871,1086.027L856.383,1086.027C858.309,1108.91 867.617,1154.391 910.234,1174.074C945.874,1197.179 996.622,1182.208 1023.596,1140.609C1023.598,1140.605 1023.6,1140.602 1023.602,1140.598C1034.806,1123.327 1040.129,1104.169 1039.984,1086.027L1191.086,1086.027C1198.648,1086.027 1204.766,1079.91 1204.766,1072.348C1204.766,1064.797 1198.648,1058.664 1191.086,1058.664ZM278.094,726.203C278.094,718.637 284.211,712.52 291.777,712.52L410.488,712.52C418.664,688.555 447.781,670.816 482.473,670.816C517.164,670.816 546.293,688.555 554.457,712.52L580.527,712.52C514.34,674.562 471.723,612.355 471.723,531.324C471.723,481.406 487.875,431.148 515.742,387.152C477.07,377.348 448.445,342.32 448.445,300.602C448.445,251.293 488.422,211.32 537.742,211.32C581.113,211.32 617.238,242.246 625.32,283.25C663.812,261.953 707.418,249.418 753.629,249.418C799.836,249.418 843.445,261.953 881.934,283.25C890.004,242.246 926.141,211.32 969.512,211.32C1018.82,211.32 1058.797,251.293 1058.797,300.602C1058.797,342.32 1030.184,377.348 991.512,387.152C1019.379,431.148 1035.535,481.406 1035.535,531.324C1035.535,612.355 992.918,674.562 926.727,712.52L955.391,712.52C963.551,688.555 992.684,670.816 1027.371,670.816C1062.062,670.816 1091.195,688.555 1099.355,712.52L1191.086,712.52C1198.648,712.52 1204.766,718.637 1204.766,726.203C1204.766,733.75 1198.648,739.883 1191.086,739.883L1099.355,739.883C1091.195,763.848 1062.062,781.574 1027.371,781.574C992.684,781.574 963.562,763.848 955.391,739.883L861.746,739.883C828.449,749.617 791.938,754.723 753.629,754.723C715.32,754.723 678.805,749.617 645.508,739.883L554.457,739.883C546.293,763.848 517.164,781.574 482.473,781.574C447.781,781.574 418.664,763.848 410.488,739.883L291.777,739.883C284.211,739.883 278.094,733.75 278.094,726.203" style="fill:rgb(115,115,115);fill-rule:nonzero;stroke:black;stroke-width:1.26px;"/>
                </g>
                <g id="GreyParts" transform="matrix(1.333333,0,0,1.333333,-0.000082,-12.51114)">
                    <path d="M492.523,1079.441C488.371,1080.965 486.43,1086.055 488.16,1090.832C489.918,1095.594 494.695,1098.223 498.836,1096.715C502.988,1095.191 504.941,1090.102 503.195,1085.324C501.453,1080.559 496.676,1077.93 492.523,1079.441ZM518.867,1059.25C515.445,1053.98 508.961,1052.117 504.367,1055.098C499.785,1058.066 498.836,1064.758 502.258,1070.027C505.668,1075.301 512.164,1077.164 516.746,1074.18C521.34,1071.215 522.277,1064.523 518.867,1059.25ZM537.391,1071.918C542.793,1071.059 546.371,1065.344 545.383,1059.133C544.406,1052.926 539.238,1048.59 533.836,1049.449C528.434,1050.297 524.855,1056.023 525.832,1062.23C526.82,1068.43 531.988,1072.777 537.391,1071.918ZM560.73,1060.684C555.262,1060.684 550.824,1065.773 550.824,1072.059C550.824,1078.348 555.262,1083.438 560.73,1083.438C566.199,1083.438 570.621,1078.348 570.621,1072.059C570.621,1065.773 566.199,1060.684 560.73,1060.684ZM522.176,1082.238C510.535,1088.527 508.844,1107.934 518.375,1125.598C527.914,1143.262 541.27,1143.797 552.895,1137.508C564.531,1131.234 570.039,1120.523 560.496,1102.859C550.969,1085.195 533.797,1075.965 522.176,1082.238ZM1014.734,1079.441C1010.582,1077.93 1005.805,1080.559 1004.059,1085.324C1002.316,1090.102 1004.266,1095.191 1008.406,1096.715C1012.559,1098.223 1017.336,1095.594 1019.082,1090.832C1020.824,1086.055 1018.887,1080.965 1014.734,1079.441ZM1004.996,1070.027C1008.418,1064.758 1007.469,1058.066 1002.887,1055.098C998.293,1052.117 991.809,1053.98 988.387,1059.25C984.977,1064.523 985.914,1071.215 990.508,1074.18C995.09,1077.164 1001.586,1075.301 1004.996,1070.027ZM961.859,1059.133C960.883,1065.344 964.461,1071.059 969.863,1071.918C975.266,1072.777 980.445,1068.43 981.422,1062.23C982.398,1056.023 978.82,1050.297 973.418,1049.449C968.016,1048.59 962.848,1052.926 961.859,1059.133ZM956.43,1072.059C956.43,1065.773 951.992,1060.684 946.523,1060.684C941.059,1060.684 936.633,1065.773 936.633,1072.059C936.633,1078.348 941.059,1083.438 946.523,1083.438C951.992,1083.438 956.43,1078.348 956.43,1072.059ZM985.082,1082.238C973.457,1075.965 956.289,1085.195 946.746,1102.859C937.219,1120.523 942.723,1131.234 954.359,1137.508C965.984,1143.797 979.34,1143.262 988.883,1125.598C998.41,1107.934 996.719,1088.527 985.082,1082.238ZM1001.066,331.543C1017.285,315.309 1017.285,289.004 1001.066,272.785C984.832,256.551 958.527,256.551 942.309,272.785C926.074,289.004 933.559,307.824 949.793,324.059C966.012,340.277 984.832,347.762 1001.066,331.543ZM506.191,272.785C489.969,289.004 489.969,315.309 506.191,331.543C522.422,347.762 541.242,340.277 557.465,324.059C573.695,307.824 581.18,289.004 564.949,272.785C548.73,256.551 522.422,256.551 506.191,272.785ZM897.242,605.781C897.242,663.07 832.938,709.5 753.629,709.5C674.316,709.5 610.012,663.07 610.012,605.781C610.012,548.508 674.316,502.062 753.629,502.062C832.938,502.062 897.242,548.508 897.242,605.781" style="fill:rgb(217,217,217);fill-rule:nonzero;stroke:black;stroke-width:2.58px;"/>
                </g>
                <g>
                    <g id="BlackNoseEyes" transform="matrix(1.333333,0,0,1.333333,0,0.000045)">
                        <path d="M877.289,482.121C866.277,482.121 857.348,491.051 857.348,502.062C857.348,513.09 866.277,522.02 877.289,522.02C888.312,522.02 897.242,513.09 897.242,502.062C897.242,491.051 888.312,482.121 877.289,482.121ZM637.504,482.121C626.477,482.121 617.551,491.051 617.551,502.062C617.551,513.09 626.477,522.02 637.504,522.02C648.516,522.02 657.445,513.09 657.445,502.062C657.445,491.051 648.516,482.121 637.504,482.121ZM806.812,539.305C806.812,555.457 783.008,583.328 753.629,583.328C724.25,583.328 700.441,555.457 700.441,539.305C700.441,523.137 724.25,510.043 753.629,510.043C783.008,510.043 806.812,523.137 806.812,539.305" style="fill:rgb(50,37,18);fill-rule:nonzero;"/>
                    </g>
                    <g id="Highlights" transform="matrix(1.333333,0,0,1.333333,0,0.000045)">
                        <path d="M867.355,491.844C864.738,491.844 862.629,493.969 862.629,496.57C862.629,499.188 864.738,501.297 867.355,501.297C869.961,501.297 872.082,499.188 872.082,496.57C872.082,493.969 869.961,491.844 867.355,491.844ZM627.414,491.844C624.801,491.844 622.676,493.969 622.676,496.57C622.676,499.188 624.801,501.297 627.414,501.297C630.02,501.297 632.141,499.188 632.141,496.57C632.141,493.969 630.02,491.844 627.414,491.844ZM773.086,525.09C773.086,528.93 763.703,528.188 752.105,528.188C740.52,528.188 731.133,528.93 731.133,525.09C731.133,521.25 740.52,518.141 752.105,518.141C763.703,518.141 773.086,521.25 773.086,525.09" style="fill:white;fill-rule:nonzero;"/>
                    </g>
                </g>
                <g id="Tie" transform="matrix(1.333333,0,0,1.333333,0,0.000045)">
                    <path d="M853.09,758.781C856.344,769.055 858.062,778.555 852.895,788.277C848.234,797.066 840.137,801.504 832.117,802.375C822.473,803.43 812.371,800.461 803.066,796.777C787.172,790.465 772.332,779.129 760.512,763L760.449,761.633C759.797,762.051 759.121,762.375 758.406,762.621L758.418,762.973L755.996,763.09L749.031,763.43L746.598,763.195C745.855,763.027 744.527,763.781 744.527,763.781C734.336,780.988 720.68,793.719 705.477,801.543C696.574,806.125 686.797,810.07 677.113,809.965C669.043,809.875 660.559,806.242 655.051,797.965C648.973,788.773 649.754,779.152 651.98,768.609C654.504,756.699 655.352,747.145 651.473,735.156C646.68,720.371 640.629,707.172 649.219,693.191C655.352,683.219 666.152,678.027 675.746,680.211C706.742,687.293 746.82,718.207 746.82,718.207L753.785,717.871L756.203,717.754L756.219,718.133C757.742,718.496 759.16,719.199 760.434,720.266C767.086,711.609 790.66,683.195 820.82,673.117C830.141,670.008 841.398,674.121 848.48,683.453C858.398,696.523 853.648,710.254 850.328,725.434C847.637,737.734 849.418,747.172 853.09,758.781Z" style="fill:rgb(217,139,161);stroke:black;stroke-width:2.2px;"/>
                </g>
            </g>
        </g>
        <g>
            <path d="M902.686,973.704L903.628,972.121C903.628,972.121 957.171,1006.711 1010.501,1007.61C1060.434,1008.451 1107.943,970.176 1107.943,970.176L1109.037,971.649C1109.037,971.649 1060.974,1010.322 1010.472,1009.471C956.689,1008.565 902.686,973.704 902.686,973.704Z" style="fill:none;stroke:black;stroke-width:4.3px;stroke-linecap:round;stroke-miterlimit:1.5;"/>
            <path d="M1011.157,909.579L1010.486,1008.54" style="fill:none;stroke:black;stroke-width:4.3px;stroke-linecap:round;stroke-miterlimit:1.5;"/>
        </g>
    </g>
</svg>
