<?xml version="1.0" encoding="UTF-8" standalone="no"?>
<!DOCTYPE svg PUBLIC "-//W3C//DTD SVG 1.1//EN" "http://www.w3.org/Graphics/SVG/1.1/DTD/svg11.dtd">
<svg width="100%" height="100%" viewBox="0 980 2000 380" version="1.1" xmlns="http://www.w3.org/2000/svg" xmlns:xlink="http://www.w3.org/1999/xlink" xml:space="preserve" xmlns:serif="http://www.serif.com/" style="fill-rule:evenodd;clip-rule:evenodd;stroke-linejoin:round;stroke-miterlimit:2;">
    <g transform="matrix(0.745956,0,0,0.716157,189.1273,222.616598)">
        <g transform="matrix(1.083191,0,0,1.107845,-79.20763,52.132602)">
            <g id="Text" transform="matrix(2.226126,0,0,2.595672,-427.960217,974.302926)">
                <g id="Text1" serif:id="Text" transform="matrix(0.792741,0,0,0.792741,144.899189,19.77499)">
                    <g>
                        <g transform="matrix(1,0,0,1,0.331128,162.461189)">
                            <g>
                                <path d="M96.859,-114.594L42.594,-114.594L42.594,-36.75L96.859,-36.75L96.859,0L42.594,0C35.82,0 29.66,-1.656 24.109,-4.969C18.555,-8.289 14.125,-12.723 10.812,-18.266C7.5,-23.816 5.844,-29.977 5.844,-36.75L5.844,-114.594C5.844,-121.375 7.5,-127.535 10.812,-133.078C14.125,-138.629 18.555,-143.062 24.109,-146.375C29.66,-149.695 35.82,-151.359 42.594,-151.359L96.859,-151.359L96.859,-114.594Z" style="fill:rgb(61,47,47);fill-rule:nonzero;"/>
                            </g>
                        </g>
                    </g>
                    <g>
                        <g transform="matrix(1,0,0,1,100.227394,162.461189)">
                            <g>
                                <path d="M65.953,-114.812L102.703,-114.812L102.703,-36.75C102.703,-30.125 101.047,-24.035 97.734,-18.484C94.422,-12.93 89.988,-8.5 84.438,-5.188C78.883,-1.875 72.723,-0.219 65.953,-0.219L47.562,-0.219C40.789,-0.219 34.629,-1.875 29.078,-5.188C23.523,-8.5 19.094,-12.93 15.781,-18.484C12.469,-24.035 10.812,-30.125 10.812,-36.75L10.812,-114.812L47.562,-114.812L47.562,-36.75L65.953,-36.75L65.953,-114.812Z" style="fill:rgb(61,47,47);fill-rule:nonzero;"/>
                            </g>
                        </g>
                    </g>
                    <g>
                        <g transform="matrix(1,0,0,1,213.745876,162.461189)">
                            <g>
                                <path d="M65.953,-151.562L102.703,-151.562L102.703,-0.219L41.297,-0.219C35.672,-0.219 30.551,-1.586 25.938,-4.328C21.332,-7.066 17.66,-10.738 14.922,-15.344C12.18,-19.957 10.812,-25.078 10.812,-30.703L10.812,-84.328C10.812,-89.953 12.18,-95.066 14.922,-99.672C17.66,-104.285 21.332,-107.961 25.938,-110.703C30.551,-113.441 35.672,-114.812 41.297,-114.812L65.953,-114.812L65.953,-151.562ZM47.562,-78.062L47.562,-36.75L65.953,-36.75L65.953,-78.062L47.562,-78.062Z" style="fill:rgb(61,47,47);fill-rule:nonzero;"/>
                            </g>
                        </g>
                    </g>
                    <g>
                        <g transform="matrix(1,0,0,1,327.264376,162.461189)">
                            <g>
                                <path d="M65.953,-151.562L102.703,-151.562L102.703,-0.219L41.297,-0.219C35.672,-0.219 30.551,-1.586 25.938,-4.328C21.332,-7.066 17.66,-10.738 14.922,-15.344C12.18,-19.957 10.812,-25.078 10.812,-30.703L10.812,-84.328C10.812,-89.953 12.18,-95.066 14.922,-99.672C17.66,-104.285 21.332,-107.961 25.938,-110.703C30.551,-113.441 35.672,-114.812 41.297,-114.812L65.953,-114.812L65.953,-151.562ZM47.562,-78.062L47.562,-36.75L65.953,-36.75L65.953,-78.062L47.562,-78.062Z" style="fill:rgb(61,47,47);fill-rule:nonzero;"/>
                            </g>
                        </g>
                    </g>
                    <g>
                        <g transform="matrix(1,0,0,1,440.782857,162.461189)">
                            <g>
                                <path d="M45.625,-151.562L47.562,-151.562L47.562,-0.219L10.812,-0.219L10.812,-116.766C10.812,-123.098 12.359,-128.895 15.453,-134.156C18.555,-139.426 22.738,-143.645 28,-146.812C33.258,-149.977 39.133,-151.562 45.625,-151.562Z" style="fill:rgb(61,47,47);fill-rule:nonzero;"/>
                            </g>
                        </g>
                    </g>
                    <g>
                        <g transform="matrix(1,0,0,1,499.163757,162.461189)">
                            <g>
                                <path d="M87.562,-48.438L71.781,-36.969L102.703,-36.969L102.703,-0.219L41.297,-0.219C35.672,-0.219 30.551,-1.586 25.938,-4.328C21.332,-7.066 17.66,-10.738 14.922,-15.344C12.18,-19.957 10.812,-25.078 10.812,-30.703L10.812,-78.266L47.562,-78.266L47.562,-58.812L73.734,-78.266L10.812,-78.266L10.812,-84.328C10.812,-89.953 12.18,-95.066 14.922,-99.672C17.66,-104.285 21.332,-107.961 25.938,-110.703C30.551,-113.441 35.672,-114.812 41.297,-114.812L102.703,-114.812L102.703,-78.266C102.703,-72.359 101.367,-66.773 98.703,-61.516C96.035,-56.254 92.32,-51.895 87.562,-48.438Z" style="fill:rgb(61,47,47);fill-rule:nonzero;"/>
                            </g>
                        </g>
                    </g>
                    <g>
                        <g transform="matrix(1,0,0,1,680.360913,162.461189)">
                            <g>
                                <path d="M96.859,-114.594L42.594,-114.594L42.594,-36.75L96.859,-36.75L96.859,0L42.594,0C35.82,0 29.66,-1.656 24.109,-4.969C18.555,-8.289 14.125,-12.723 10.812,-18.266C7.5,-23.816 5.844,-29.977 5.844,-36.75L5.844,-114.594C5.844,-121.375 7.5,-127.535 10.812,-133.078C14.125,-138.629 18.555,-143.062 24.109,-146.375C29.66,-149.695 35.82,-151.359 42.594,-151.359L96.859,-151.359L96.859,-114.594Z" style="fill:rgb(61,47,47);fill-rule:nonzero;"/>
                            </g>
                        </g>
                    </g>
                    <g>
                        <g transform="matrix(1,0,0,1,780.257127,162.461189)">
                            <g>
                                <path d="M102.703,-78.266L102.703,-36.969C102.703,-30.195 101.047,-24.035 97.734,-18.484C94.422,-12.93 89.988,-8.5 84.438,-5.188C78.883,-1.875 72.723,-0.219 65.953,-0.219L47.562,-0.219C40.789,-0.219 34.629,-1.875 29.078,-5.188C23.523,-8.5 19.094,-12.93 15.781,-18.484C12.469,-24.035 10.812,-30.195 10.812,-36.969L10.812,-78.266L47.562,-78.266L47.562,-36.969L65.953,-36.969L65.953,-78.266L102.703,-78.266ZM65.953,-114.812C72.723,-114.812 78.883,-113.188 84.438,-109.938C89.988,-106.695 94.422,-102.266 97.734,-96.641C101.047,-91.023 102.703,-84.898 102.703,-78.266L10.812,-78.266L10.812,-84.328C10.812,-89.953 12.18,-95.066 14.922,-99.672C17.66,-104.285 21.332,-107.961 25.938,-110.703C30.551,-113.441 35.672,-114.812 41.297,-114.812L65.953,-114.812Z" style="fill:rgb(61,47,47);fill-rule:nonzero;"/>
                            </g>
                        </g>
                    </g>
                    <g>
                        <g transform="matrix(1,0,0,1,893.775608,162.461189)">
                            <g>
                                <path d="M95.141,-114.812L104.656,-114.812L104.656,-78.266L95.141,-78.266C85.766,-78.266 77.836,-74.953 71.359,-68.328L47.562,-44.547L47.562,-0.219L10.812,-0.219L10.812,-114.812C18.301,-114.812 25.035,-112.789 31.016,-108.75C37.004,-104.719 41.441,-99.531 44.328,-93.188L45.188,-94.266C51.969,-100.898 59.645,-105.984 68.219,-109.516C76.789,-113.047 85.766,-114.812 95.141,-114.812Z" style="fill:rgb(61,47,47);fill-rule:nonzero;"/>
                            </g>
                        </g>
                    </g>
                    <g>
                        <g transform="matrix(1,0,0,1,1009.240178,162.461189)">
                            <g>
                                <path d="M113.078,-77.844L113.078,0L76.328,0L76.328,-77.844L44.328,-77.844L44.328,0L7.562,0L7.562,-114.594L76.328,-114.594C83.098,-114.594 89.258,-112.938 94.812,-109.625C100.363,-106.312 104.797,-101.879 108.109,-96.328C111.422,-90.773 113.078,-84.613 113.078,-77.844Z" style="fill:rgb(61,47,47);fill-rule:nonzero;"/>
                            </g>
                        </g>
                    </g>
                    <g>
                        <g transform="matrix(1,0,0,1,1129.894084,162.461189)">
                            <g>
                                <path d="M87.562,-48.438L71.781,-36.969L102.703,-36.969L102.703,-0.219L41.297,-0.219C35.672,-0.219 30.551,-1.586 25.938,-4.328C21.332,-7.066 17.66,-10.738 14.922,-15.344C12.18,-19.957 10.812,-25.078 10.812,-30.703L10.812,-78.266L47.562,-78.266L47.562,-58.812L73.734,-78.266L10.812,-78.266L10.812,-84.328C10.812,-89.953 12.18,-95.066 14.922,-99.672C17.66,-104.285 21.332,-107.961 25.938,-110.703C30.551,-113.441 35.672,-114.812 41.297,-114.812L102.703,-114.812L102.703,-78.266C102.703,-72.359 101.367,-66.773 98.703,-61.516C96.035,-56.254 92.32,-51.895 87.562,-48.438Z" style="fill:rgb(61,47,47);fill-rule:nonzero;"/>
                            </g>
                        </g>
                    </g>
                    <g>
                        <g transform="matrix(1,0,0,1,1243.412566,162.461189)">
                            <g>
                                <path d="M95.141,-114.812L104.656,-114.812L104.656,-78.266L95.141,-78.266C85.766,-78.266 77.836,-74.953 71.359,-68.328L47.562,-44.547L47.562,-0.219L10.812,-0.219L10.812,-114.812C18.301,-114.812 25.035,-112.789 31.016,-108.75C37.004,-104.719 41.441,-99.531 44.328,-93.188L45.188,-94.266C51.969,-100.898 59.645,-105.984 68.219,-109.516C76.789,-113.047 85.766,-114.812 95.141,-114.812Z" style="fill:rgb(61,47,47);fill-rule:nonzero;"/>
                            </g>
                        </g>
                    </g>
                </g>
            </g>
        </g>
    </g>
</svg>
