<svg width="27" height="27" viewBox="0 0 27 27" fill="none" xmlns="http://www.w3.org/2000/svg">
<path d="M13.4877 0C15.2762 0 16.9916 0.710508 18.2563 1.97522C19.521 3.23993 20.2315 4.95525 20.2315 6.74383C20.2315 8.5324 19.521 10.2477 18.2563 11.5124C16.9916 12.7771 15.2762 13.4877 13.4877 13.4877C11.6991 13.4877 9.98376 12.7771 8.71905 11.5124C7.45434 10.2477 6.74383 8.5324 6.74383 6.74383C6.74383 4.95525 7.45434 3.23993 8.71905 1.97522C9.98376 0.710508 11.6991 0 13.4877 0ZM13.4877 16.8596C20.9396 16.8596 26.9753 19.8774 26.9753 23.6034V26.9753H0V23.6034C0 19.8774 6.03573 16.8596 13.4877 16.8596Z" fill="black"/>
</svg>
