<svg width="21" height="21" viewBox="0 0 21 21" fill="none" xmlns="http://www.w3.org/2000/svg">
<path d="M16 7C16 3.6865 13.5375 1 10.5 1C7.4625 1 5 3.6865 5 7M1 7H20L17.9 20H3.1L1 7Z" stroke="black" stroke-width="2" stroke-linecap="round" stroke-linejoin="round"/>
<path d="M7 12.5C7.55228 12.5 8 12.0523 8 11.5C8 10.9477 7.55228 10.5 7 10.5C6.44772 10.5 6 10.9477 6 11.5C6 12.0523 6.44772 12.5 7 12.5Z" fill="black"/>
<path d="M7.5 15C7.5 15 8.5 16.5 10.5 16.5C12.5 16.5 13.5 15 13.5 15" stroke="black" stroke-width="2" stroke-linecap="round" stroke-linejoin="round"/>
<path d="M14 12.5C14.5523 12.5 15 12.0523 15 11.5C15 10.9477 14.5523 10.5 14 10.5C13.4477 10.5 13 10.9477 13 11.5C13 12.0523 13.4477 12.5 14 12.5Z" fill="black"/>
</svg>
