<svg width="46" height="42" viewBox="0 0 46 42" fill="none" xmlns="http://www.w3.org/2000/svg">
<path d="M19.792 0.5C20.7643 0.500086 21.6972 0.886662 22.3848 1.57422C23.0722 2.26182 23.458 3.19469 23.458 4.16699C23.4579 5.59527 23.0766 6.93208 22.4111 8.08301L21.9775 8.83301H25C25.4198 8.83301 25.8222 9.00015 26.1191 9.29688C26.4161 9.59381 26.583 9.99707 26.583 10.417V13H35.417C36.7192 13 38.0089 13.2566 39.2119 13.7549C40.4149 14.2532 41.508 14.9836 42.4287 15.9043C43.3496 16.8251 44.0798 17.9189 44.5781 19.1221C45.0764 20.3252 45.333 21.6148 45.333 22.917V31.25L45.3291 31.4814C45.2832 32.6337 44.891 33.7475 44.2021 34.6768C43.4674 35.6679 42.4336 36.3966 41.2529 36.7549L40.9971 36.832L40.9189 37.0879C40.5674 38.2475 39.8586 39.2672 38.8936 40C37.9287 40.7325 36.757 41.1417 35.5459 41.1689C34.3346 41.1961 33.1453 40.84 32.1484 40.1514C31.1516 39.4627 30.3974 38.4765 29.9941 37.334L29.877 37H15.959L15.8408 37.334C15.4376 38.4765 14.6833 39.4627 13.6865 40.1514C12.6898 40.8398 11.5011 41.1961 10.29 41.1689C9.07875 41.1417 7.90637 40.7327 6.94141 40C5.9764 39.2672 5.26754 38.2475 4.91602 37.0879L4.83887 36.832L4.58203 36.7549L4.3623 36.6836C3.27287 36.305 2.321 35.606 1.63184 34.6768C0.896704 33.6855 0.499622 32.4841 0.5 31.25V10.417C0.5 9.99707 0.666935 9.59381 0.963867 9.29688C1.26071 9.00012 1.66328 8.83309 2.08301 8.83301H5.10547L4.67285 8.08398C3.98597 6.89303 3.62449 5.54182 3.625 4.16699C3.625 3.19453 4.01159 2.26185 4.69922 1.57422C5.38685 0.886585 6.31953 0.5 7.29199 0.5C8.40321 0.499981 9.50181 0.73623 10.5146 1.19336C11.5276 1.65053 12.4319 2.31794 13.167 3.15137L13.542 3.57715L13.917 3.15137C14.652 2.31815 15.5557 1.65047 16.5684 1.19336C17.5813 0.73619 18.6807 0.499939 19.792 0.5ZM35.417 32.833C34.7319 32.833 34.0743 33.1054 33.5898 33.5898C33.1054 34.0743 32.833 34.7319 32.833 35.417C32.8331 36.1019 33.1056 36.7588 33.5898 37.2432C34.0743 37.7276 34.7319 38 35.417 38C36.102 37.9999 36.7588 37.7276 37.2432 37.2432C37.7276 36.7588 37.9999 36.102 38 35.417C38 34.7319 37.7276 34.0743 37.2432 33.5898C36.7588 33.1056 36.1019 32.8331 35.417 32.833ZM10.4199 32.8076C10.077 32.8106 9.73799 32.8822 9.42285 33.0176C9.10768 33.153 8.82229 33.3499 8.58398 33.5967C8.11364 34.0838 7.8536 34.736 7.85938 35.4131C7.86526 36.0904 8.13636 36.7388 8.61523 37.2178C9.0942 37.6967 9.74258 37.9687 10.4199 37.9746C11.0972 37.9805 11.7501 37.7196 12.2373 37.249C12.4838 37.0109 12.6801 36.726 12.8154 36.4111C12.9508 36.096 13.0224 35.7561 13.0254 35.4131C13.0283 35.0703 12.9628 34.7304 12.833 34.4131C12.7031 34.0956 12.5111 33.807 12.2686 33.5645C12.0261 33.3221 11.7382 33.1299 11.4209 33C11.1034 32.8701 10.7629 32.8047 10.4199 32.8076ZM26.583 33.833H29.877L29.9941 33.5C30.373 32.4276 31.0618 31.4917 31.9727 30.8105C32.8836 30.1294 33.9765 29.7339 35.1123 29.6738C36.248 29.6138 37.3759 29.8916 38.3535 30.4727C39.3313 31.0538 40.1155 31.912 40.6055 32.9385L40.9092 33.5762L41.4102 33.0762C41.8944 32.5919 42.1668 31.9349 42.167 31.25V22.917C42.167 21.1268 41.4553 19.4094 40.1895 18.1436C38.9237 16.8779 37.207 16.1671 35.417 16.167H26.583V33.833ZM6.79199 4.16699C6.79208 5.40455 7.28311 6.5917 8.1582 7.4668C9.0333 8.34189 10.2204 8.83292 11.458 8.83301H11.958V8.33301C11.9579 7.09545 11.4669 5.9083 10.5918 5.0332C9.7167 4.15811 8.52955 3.66708 7.29199 3.66699H6.79199V4.16699ZM19.792 3.66699C18.5545 3.66699 17.3673 4.15824 16.4922 5.0332C15.6171 5.9083 15.1251 7.09545 15.125 8.33301V8.83301H15.625C16.8626 8.83301 18.0497 8.34187 18.9248 7.4668C19.7999 6.5917 20.2919 5.40455 20.292 4.16699V3.66699H19.792Z" fill="#A8C9B8" stroke="black"/>
</svg>
