<svg width="43" height="39" viewBox="0 0 43 39" fill="none" xmlns="http://www.w3.org/2000/svg">
<path d="M18.667 19.8008V35.1338H23.5V19.8008H39.75V34.6338C39.75 35.5178 39.3986 36.3661 38.7734 36.9912C38.1484 37.6162 37.3009 37.9677 36.417 37.9678H5.75C4.86594 37.9678 4.0177 37.6163 3.39258 36.9912C2.7676 36.3661 2.41699 35.5177 2.41699 34.6338V19.8008H18.667ZM15.4434 0.5C16.954 0.517587 18.4703 1.18983 19.583 2.76172L19.5869 2.76758L20.6797 4.2627L21.0781 4.80762L21.4834 4.26758L22.582 2.80273C26.1358 -2.1333 33.8337 1.9128 31.7871 7.63281L31.5479 8.30078H38.333C39.2171 8.30078 40.0653 8.65222 40.6904 9.27734C41.3154 9.90235 41.6669 10.7499 41.667 11.6338V15.4678C41.6669 15.8434 41.5176 16.2041 41.252 16.4697C40.9863 16.7353 40.6257 16.8838 40.25 16.8838H23.5V11.1338H18.667V16.8838H1.91699C1.54139 16.8838 1.18069 16.7352 0.915039 16.4697C0.649408 16.2041 0.500052 15.8434 0.5 15.4678V11.6338C0.500121 10.7499 0.851549 9.90236 1.47656 9.27734C2.1016 8.65234 2.9491 8.30087 3.83301 8.30078H10.6289L10.3779 7.62695C9.63684 5.63308 10.0787 3.86186 11.1064 2.58203C12.1455 1.28811 13.7883 0.491998 15.4434 0.5ZM15.333 3.46777C14.6922 3.46786 14.0772 3.72265 13.624 4.17578C13.1712 4.62885 12.9171 5.24321 12.917 5.88379C12.917 8.03276 15.5237 9.12275 17.0479 7.59863C18.5719 6.07451 17.4819 3.46777 15.333 3.46777ZM26.833 3.46777C26.1922 3.46786 25.5772 3.72265 25.124 4.17578C24.6712 4.62885 24.4171 5.24321 24.417 5.88379C24.417 8.03276 27.0237 9.12275 28.5479 7.59863C30.0719 6.07451 28.9819 3.46777 26.833 3.46777Z" fill="#F2C879" stroke="black"/>
</svg>
