<svg width="34" height="34" viewBox="0 0 34 34" fill="none" xmlns="http://www.w3.org/2000/svg">
<path d="M26.6269 26.6269C27.5097 26.6269 28.3563 26.9776 28.9804 27.6018C29.6046 28.226 29.9553 29.0726 29.9553 29.9553C29.9553 30.838 29.6046 31.6846 28.9804 32.3088C28.3563 32.933 27.5097 33.2837 26.6269 33.2837C25.7442 33.2837 24.8976 32.933 24.2734 32.3088C23.6492 31.6846 23.2986 30.838 23.2986 29.9553C23.2986 28.1081 24.7797 26.6269 26.6269 26.6269ZM0 0H5.44188L7.00621 3.32837H31.6195C32.0609 3.32837 32.4841 3.5037 32.7962 3.81579C33.1083 4.12789 33.2837 4.55118 33.2837 4.99255C33.2837 5.27546 33.2005 5.55837 33.084 5.82464L27.1262 16.5919C26.5604 17.6071 25.462 18.306 24.2139 18.306H11.8157L10.3179 21.0186L10.268 21.2183C10.268 21.3287 10.3118 21.4345 10.3899 21.5125C10.4679 21.5905 10.5737 21.6344 10.6841 21.6344H29.9553V24.9627H9.9851C9.10236 24.9627 8.25578 24.6121 7.63159 23.9879C7.0074 23.3637 6.65673 22.5171 6.65673 21.6344C6.65673 21.0519 6.80651 20.5027 7.05614 20.0368L9.31943 15.9595L3.32837 3.32837H0V0ZM9.9851 26.6269C10.8678 26.6269 11.7144 26.9776 12.3386 27.6018C12.9628 28.226 13.3135 29.0726 13.3135 29.9553C13.3135 30.838 12.9628 31.6846 12.3386 32.3088C11.7144 32.933 10.8678 33.2837 9.9851 33.2837C9.10236 33.2837 8.25578 32.933 7.63159 32.3088C7.0074 31.6846 6.65673 30.838 6.65673 29.9553C6.65673 28.1081 8.13786 26.6269 9.9851 26.6269ZM24.9627 14.9776L29.5892 6.65673H8.5539L12.4814 14.9776H24.9627Z" fill="black"/>
</svg>
