<svg width="57" height="57" viewBox="0 0 57 57" fill="none" xmlns="http://www.w3.org/2000/svg">
<mask id="path-1-inside-1_143_384" fill="white">
<path d="M56.9876 14.7837C56.7683 11.1434 56.0292 8.1868 53.6302 5.14129C48.8267 -0.946888 37.7826 -1.96048 32.843 3.90077C31.9813 4.76308 31.1688 5.80126 30.3509 7.04178L28.5031 9.84901L26.6534 7.04178C25.8338 5.80126 25.0186 4.76214 24.1568 3.90077C19.2129 -1.96048 8.17055 -0.947833 3.36974 5.14129C0.967991 8.1868 0.229749 11.1434 0.0096191 14.7837C-0.303574 25.606 7.12896 34.2717 8.04617 35.5415C13.0904 41.7942 18.5927 47.7065 24.1801 53.1536C25.1913 54.0888 26.0646 54.8679 26.938 55.6394C27.4633 56.0923 27.9814 56.5499 28.5031 57C29.0239 56.549 29.5402 56.0914 30.0628 55.6394C30.9388 54.8679 31.8131 54.0888 32.8207 53.1536C38.4107 47.7065 43.914 41.798 48.9546 35.5415C49.8727 34.2717 57.3053 25.606 56.9903 14.7837"/>
</mask>
<path d="M56.9876 14.7837C56.7683 11.1434 56.0292 8.1868 53.6302 5.14129C48.8267 -0.946888 37.7826 -1.96048 32.843 3.90077C31.9813 4.76308 31.1688 5.80126 30.3509 7.04178L28.5031 9.84901L26.6534 7.04178C25.8338 5.80126 25.0186 4.76214 24.1568 3.90077C19.2129 -1.96048 8.17055 -0.947833 3.36974 5.14129C0.967991 8.1868 0.229749 11.1434 0.0096191 14.7837C-0.303574 25.606 7.12896 34.2717 8.04617 35.5415C13.0904 41.7942 18.5927 47.7065 24.1801 53.1536C25.1913 54.0888 26.0646 54.8679 26.938 55.6394C27.4633 56.0923 27.9814 56.5499 28.5031 57C29.0239 56.549 29.5402 56.0914 30.0628 55.6394C30.9388 54.8679 31.8131 54.0888 32.8207 53.1536C38.4107 47.7065 43.914 41.798 48.9546 35.5415C49.8727 34.2717 57.3053 25.606 56.9903 14.7837" fill="#D98BA1"/>
<path d="M53.6301 5.14129L54.4157 4.52249L54.4152 4.52188L53.6301 5.14129ZM32.843 3.90077L33.5504 4.60764L33.5804 4.57763L33.6077 4.54519L32.843 3.90077ZM30.3509 7.04178L29.516 6.49134L29.5156 6.49196L30.3509 7.04178ZM28.5031 9.84901L27.668 10.3992L28.5035 11.6672L29.3384 10.3988L28.5031 9.84901ZM26.6534 7.04178L27.4885 6.49159L27.4878 6.4905L26.6534 7.04178ZM24.1568 3.90077L23.3925 4.54553L23.4198 4.578L23.4499 4.60803L24.1568 3.90077ZM3.36974 5.14129L4.15495 5.76052L4.15502 5.76043L3.36974 5.14129ZM0.0096191 14.7837L-0.988558 14.7233L-0.989507 14.739L-0.989962 14.7547L0.0096191 14.7837ZM8.04617 35.5415L7.23552 36.1271L7.25113 36.1487L7.26786 36.1694L8.04617 35.5415ZM24.1801 53.1536L23.482 53.8697L23.4915 53.8789L23.5012 53.8878L24.1801 53.1536ZM26.938 55.6394L26.2759 56.3889L26.285 56.3968L26.938 55.6394ZM28.5031 57L27.8499 57.7572L28.5043 58.3218L29.1577 57.7559L28.5031 57ZM30.0628 55.6394L30.7169 56.3958L30.7237 56.3899L30.0628 55.6394ZM32.8207 53.1536L33.5009 53.8866L33.5098 53.8783L33.5186 53.8699L32.8207 53.1536ZM48.9546 35.5415L49.7333 36.1689L49.7497 36.1486L49.765 36.1274L48.9546 35.5415ZM56.9876 14.7837L57.9858 14.7235C57.7587 10.9539 56.9802 7.77803 54.4157 4.52249L53.6301 5.14129L52.8446 5.76009C55.0782 8.59556 55.778 11.3329 55.9894 14.8438L56.9876 14.7837ZM53.6301 5.14129L54.4152 4.52188C51.8058 1.21458 47.5593 -0.660014 43.3582 -0.957507C39.1587 -1.25489 34.8103 0.0146302 32.0784 3.25635L32.843 3.90077L33.6077 4.54519C35.8153 1.92566 39.4587 0.771355 43.217 1.0375C46.9737 1.30353 50.651 2.97982 52.8451 5.7607L53.6301 5.14129ZM32.843 3.90077L32.1357 3.1939C31.2132 4.11702 30.3592 5.21242 29.516 6.49134L30.3509 7.04178L31.1858 7.59222C31.9784 6.3901 32.7494 5.40915 33.5504 4.60764L32.843 3.90077ZM30.3509 7.04178L29.5156 6.49196L27.6678 9.29919L28.5031 9.84901L29.3384 10.3988L31.1862 7.5916L30.3509 7.04178ZM28.5031 9.84901L29.3381 9.29882L27.4885 6.49159L26.6534 7.04178L25.8184 7.59197L27.668 10.3992L28.5031 9.84901ZM26.6534 7.04178L27.4878 6.4905C26.6427 5.21152 25.7861 4.11541 24.8638 3.19352L24.1568 3.90077L23.4499 4.60803C24.2511 5.40887 25.0249 6.391 25.8191 7.59306L26.6534 7.04178ZM24.1568 3.90077L24.9212 3.25601C22.1872 0.0147181 17.8384 -1.25513 13.639 -0.957863C9.43812 -0.660489 5.19256 1.21416 2.58446 4.52215L3.36974 5.14129L4.15502 5.76043C6.34773 2.9793 10.0237 1.30306 13.7802 1.03714C17.5382 0.771125 21.1825 1.92557 23.3925 4.54553L24.1568 3.90077ZM3.36974 5.14129L2.58453 4.52206C0.016953 7.77784 -0.760623 10.954 -0.988558 14.7233L0.0096191 14.7837L1.0078 14.844C1.22012 11.3328 1.91903 8.59575 4.15495 5.76052L3.36974 5.14129ZM0.0096191 14.7837L-0.989962 14.7547C-1.31498 25.9857 6.38343 34.9474 7.23552 36.1271L8.04617 35.5415L8.85681 34.956C7.87448 33.596 0.707832 25.2263 1.0092 14.8126L0.0096191 14.7837ZM8.04617 35.5415L7.26786 36.1694C12.3412 42.4582 17.8713 48.3998 23.482 53.8697L24.1801 53.1536L24.8782 52.4376C19.3141 47.0133 13.8396 41.1303 8.82448 34.9136L8.04617 35.5415ZM24.1801 53.1536L23.5012 53.8878C24.5202 54.8302 25.3998 55.6149 26.2759 56.3888L26.938 55.6394L27.6001 54.89C26.7295 54.1208 25.8624 53.3473 24.8591 52.4195L24.1801 53.1536ZM26.938 55.6394L26.285 56.3968C26.545 56.6209 26.8036 56.8466 27.0643 57.0742C27.3243 57.3011 27.5864 57.5299 27.8499 57.7572L28.5031 57L29.1563 56.2428C28.898 56.02 28.6403 55.795 28.3795 55.5674C28.1194 55.3404 27.8563 55.1108 27.591 54.8821L26.938 55.6394ZM28.5031 57L29.1577 57.7559C29.7376 57.2538 30.1472 56.8885 30.7169 56.3958L30.0628 55.6394L29.4086 54.883C28.9332 55.2942 28.3102 55.8442 27.8484 56.2441L28.5031 57ZM30.0628 55.6394L30.7237 56.3899C31.6031 55.6154 32.4845 54.83 33.5009 53.8866L32.8207 53.1536L32.1404 52.4207C31.1417 53.3475 30.2746 54.1203 29.4019 54.889L30.0628 55.6394ZM32.8207 53.1536L33.5186 53.8699C39.1319 48.4001 44.6632 42.462 49.7333 36.1689L48.9546 35.5415L48.1759 34.9141C43.1648 41.134 37.6896 47.013 32.1228 52.4374L32.8207 53.1536ZM48.9546 35.5415L49.765 36.1274C50.6183 34.9472 58.3167 25.9858 57.9898 14.7546L56.9903 14.7837L55.9907 14.8128C56.2938 25.2263 49.1271 33.5962 48.1442 34.9556L48.9546 35.5415Z" fill="black" mask="url(#path-1-inside-1_143_384)"/>
<path d="M53.9085 12.8529C53.8988 11.92 53.761 10.9935 53.4995 10.1024C53.2609 9.28863 52.908 8.51731 52.4526 7.81427C49.7922 3.68332 43.9954 2.19507 39.1526 3.24081C37.2645 3.72114 35.3719 4.47188 34.503 6.37804C34.2068 7.19591 34.8296 7.58924 35.7916 7.53913C39.2761 7.12783 43.1301 7.49847 46.212 9.08032C46.9788 9.47744 47.6983 9.9483 48.3551 10.5014C50.5662 12.3102 51.5201 15.1222 51.9523 17.9114C53.027 17.6826 53.6114 16.3201 53.751 15.108C53.8771 14.3582 53.9434 13.5961 53.9085 12.8529Z" fill="#EEE2E5" fill-opacity="0.84"/>
</svg>
