<svg width="26" height="26" viewBox="0 0 26 26" fill="none" xmlns="http://www.w3.org/2000/svg">
<g clip-path="url(#clip0_193_199)">
<path d="M10 0.187989C8.71132 0.187595 7.43519 0.441113 6.2445 0.934061C5.05382 1.42701 3.97193 2.14972 3.06065 3.06092C2.14936 3.97211 1.42654 5.05393 0.933467 6.24456C0.440398 7.43519 0.186749 8.7113 0.187012 9.99999C0.186618 11.2888 0.44017 12.565 0.933179 13.7557C1.42619 14.9465 2.14899 16.0284 3.06029 16.9397C3.97159 17.851 5.05353 18.5738 6.24427 19.0668C7.43502 19.5598 8.71124 19.8134 10 19.813C12.29 19.813 14.393 19.002 16.063 17.688L16.938 18.563C16.7583 18.9121 16.6947 19.3094 16.7564 19.6972C16.8181 20.0849 17.0019 20.4429 17.281 20.719L21.875 25.344C22.588 26.058 23.755 26.058 24.469 25.344L25.344 24.469C25.6866 24.1243 25.8789 23.658 25.8789 23.172C25.8789 22.686 25.6866 22.2197 25.344 21.875L20.719 17.281C20.4413 17.0032 20.0812 16.8227 19.6924 16.7664C19.3036 16.7102 18.9071 16.7812 18.562 16.969L17.687 16.094C18.8324 14.6487 19.5472 12.9098 19.7496 11.0768C19.952 9.24383 19.6337 7.39091 18.8313 5.73052C18.0288 4.07012 16.7747 2.66947 15.2128 1.68917C13.6508 0.70886 11.8441 0.188582 10 0.187989ZM10 1.99999C12.1217 1.99999 14.1566 2.84284 15.6569 4.34313C17.1572 5.84343 18 7.87826 18 9.99999C18 12.1217 17.1572 14.1566 15.6569 15.6568C14.1566 17.1571 12.1217 18 10 18C7.87828 18 5.84345 17.1571 4.34316 15.6568C2.84287 14.1566 2.00001 12.1217 2.00001 9.99999C2.00001 7.87826 2.84287 5.84343 4.34316 4.34313C5.84345 2.84284 7.87828 1.99999 10 1.99999ZM4.93701 7.46899C4.40384 8.33298 4.12261 9.32873 4.12501 10.344C4.12383 11.0625 4.26448 11.7742 4.5389 12.4383C4.81332 13.1024 5.21612 13.7057 5.7242 14.2138C6.23228 14.7219 6.83565 15.1247 7.49971 15.3991C8.16378 15.6735 8.87548 15.8142 9.59401 15.813C10.7237 15.8117 11.8257 15.4625 12.75 14.813C12.5007 14.8364 12.2504 14.8464 12 14.843C11.0719 14.8454 10.1525 14.6643 9.29454 14.3103C8.43661 13.9562 7.6571 13.4362 7.00078 12.7799C6.34446 12.1237 5.82427 11.3443 5.4701 10.4864C5.11594 9.6285 4.93477 8.7091 4.93701 7.78099C4.93701 7.67699 4.93201 7.57299 4.93701 7.46899Z" fill="#7C7C7C"/>
</g>
<defs>
<clipPath id="clip0_193_199">
<rect width="26" height="26" fill="white"/>
</clipPath>
</defs>
</svg>
